<?xml version="1.0" standalone="no"?>
<!DOCTYPE svg PUBLIC "-//W3C//DTD SVG 20010904//EN"
 "http://www.w3.org/TR/2001/REC-SVG-20010904/DTD/svg10.dtd">
<svg version="1.0" xmlns="http://www.w3.org/2000/svg"
 width="816.000000pt" height="526.000000pt" viewBox="0 0 816.000000 526.000000"
 preserveAspectRatio="xMidYMid meet">

<g transform="translate(0.000000,526.000000) scale(0.100000,-0.100000)"
fill="#000000" stroke="none">
<path d="M3976 4834 c-53 -14 -89 -31 -151 -70 -22 -14 -52 -30 -67 -37 -16
-6 -28 -15 -28 -19 0 -4 -7 -8 -16 -8 -8 0 -30 -11 -47 -24 -18 -13 -51 -32
-74 -42 -24 -10 -43 -21 -43 -26 0 -4 -9 -8 -20 -8 -11 0 -20 -3 -20 -8 0 -4
-17 -16 -37 -27 -21 -11 -40 -22 -43 -25 -3 -3 -21 -14 -40 -24 -19 -11 -37
-22 -40 -25 -9 -10 -44 -31 -62 -37 -10 -4 -18 -10 -18 -15 0 -5 -6 -9 -14 -9
-7 0 -19 -7 -26 -15 -7 -8 -21 -15 -31 -15 -11 0 -19 -4 -19 -10 0 -5 -6 -10
-14 -10 -8 0 -21 -6 -28 -12 -12 -12 -39 -28 -103 -62 -11 -6 -22 -13 -25 -16
-3 -3 -21 -14 -40 -24 -50 -27 -79 -44 -125 -71 -22 -13 -52 -29 -67 -36 -16
-6 -28 -15 -28 -20 0 -5 -7 -9 -15 -9 -8 0 -15 -4 -15 -9 0 -5 -8 -11 -17 -15
-10 -3 -31 -15 -48 -26 -16 -11 -38 -23 -47 -26 -10 -4 -18 -10 -18 -14 0 -4
-8 -10 -17 -13 -10 -3 -40 -19 -68 -36 -52 -31 -80 -47 -130 -75 -16 -10 -52
-31 -80 -47 -27 -17 -58 -33 -67 -36 -10 -3 -18 -9 -18 -14 0 -5 -6 -9 -14 -9
-25 0 -130 -124 -166 -195 l-35 -70 0 -455 c0 -474 11 -850 25 -850 5 0 11 8
14 18 3 9 16 18 28 18 13 1 61 5 108 9 158 13 353 12 376 -2 21 -13 22 -12 27
29 7 49 15 316 22 726 4 222 8 289 20 311 12 25 73 70 125 94 8 4 33 18 55 32
22 14 49 30 60 35 11 6 43 24 70 40 28 16 69 40 93 52 23 12 42 25 42 30 0 4
8 8 17 8 9 0 24 6 32 14 9 7 36 24 61 37 25 13 59 33 75 45 17 12 37 24 45 28
8 4 24 12 35 19 62 37 101 62 105 66 3 4 25 16 50 29 25 13 63 34 85 48 22 13
49 29 60 34 11 6 43 24 70 40 28 17 57 34 65 37 8 4 17 9 20 12 3 3 21 15 40
25 19 11 37 22 40 25 7 8 39 28 75 46 17 8 50 26 74 40 45 26 141 36 141 15 0
-5 7 -10 15 -10 9 0 40 -18 70 -40 30 -22 59 -40 65 -40 6 0 18 -7 27 -15 8
-8 18 -13 23 -10 4 3 13 -2 20 -10 7 -8 19 -15 26 -15 8 0 14 -4 14 -9 0 -5 8
-11 18 -15 9 -3 35 -17 57 -31 22 -14 49 -30 60 -35 11 -6 34 -19 50 -30 17
-10 46 -27 65 -37 19 -9 37 -20 40 -24 3 -3 15 -9 28 -13 12 -4 22 -12 22 -17
0 -5 5 -9 10 -9 6 0 37 -17 68 -37 31 -20 77 -48 102 -61 25 -14 52 -31 61
-38 8 -8 23 -14 32 -14 9 0 17 -3 17 -8 0 -4 17 -16 38 -27 20 -10 60 -40 87
-66 28 -25 68 -52 90 -59 40 -13 83 -35 140 -70 17 -10 38 -19 48 -19 9 -1 17
-5 17 -10 0 -5 13 -13 28 -19 15 -5 42 -24 60 -42 l32 -32 0 -147 0 -148 -127
-132 c-125 -130 -173 -192 -172 -221 0 -10 2 -11 6 -2 2 6 9 12 15 12 6 0 8
-6 5 -14 -4 -10 5 -15 34 -18 27 -2 39 0 39 9 0 8 14 13 38 14 l37 1 -30 13
c-29 14 -29 14 30 15 33 0 92 7 130 15 51 11 139 15 326 15 249 0 257 1 262
20 3 11 6 141 6 288 1 147 4 295 8 329 6 67 -9 164 -34 223 -37 83 -133 197
-187 221 -12 5 -36 18 -53 29 -18 11 -58 33 -90 50 -32 17 -76 42 -98 56 -22
13 -49 29 -60 34 -11 6 -33 19 -50 30 -16 11 -37 23 -45 26 -8 4 -22 13 -30
19 -8 7 -37 25 -65 39 -58 31 -79 44 -120 71 -30 20 -56 35 -107 62 -15 8 -30
18 -33 24 -4 5 -15 9 -26 9 -10 0 -19 4 -19 8 0 5 -29 24 -65 43 -110 57 -139
73 -170 94 -56 37 -70 46 -87 51 -10 4 -18 10 -18 15 0 5 -7 9 -15 9 -8 0 -15
4 -15 9 0 5 -10 13 -22 17 -13 4 -25 10 -28 14 -3 4 -32 22 -65 39 -121 65
-140 76 -145 81 -8 8 -41 28 -77 46 -18 9 -37 22 -44 30 -6 8 -20 14 -29 14
-10 0 -20 3 -22 8 -6 13 -112 62 -168 77 -66 18 -157 17 -224 -1z"/>
<path d="M6480 2737 c0 -122 -3 -157 -16 -175 l-15 -22 -432 0 c-496 0 -483
-2 -472 75 5 28 3 45 -5 50 -17 10 -21 2 -23 -43 l-1 -40 -126 -7 c-69 -3
-154 -7 -190 -9 -36 -2 -77 -9 -92 -16 -24 -11 -135 -123 -500 -502 -49 -50
-88 -94 -88 -98 0 -14 157 -30 308 -32 39 -1 72 -5 72 -8 0 -4 -24 -17 -52
-30 -29 -13 -71 -35 -93 -50 -57 -38 -315 -180 -410 -225 -97 -46 -283 -137
-310 -152 -38 -21 -93 -43 -108 -43 -9 0 -19 -4 -22 -10 -3 -5 -17 -10 -30
-10 -13 0 -27 -4 -30 -10 -3 -5 -13 -10 -22 -10 -8 0 -29 -6 -46 -13 -43 -19
-101 -37 -116 -37 -7 0 -33 -10 -59 -21 -42 -20 -45 -23 -27 -31 11 -5 26 -23
33 -41 8 -18 18 -40 23 -49 5 -10 9 -31 9 -47 0 -16 6 -31 15 -35 8 -3 15 -15
15 -26 0 -11 5 -20 10 -20 6 0 10 -15 10 -34 0 -19 5 -36 11 -38 6 -2 13 -40
16 -89 5 -70 3 -88 -11 -101 -9 -10 -16 -33 -16 -57 l0 -41 520 0 c509 0 542
2 570 30 3 3 23 14 45 25 22 11 42 22 45 25 3 3 22 14 43 25 20 11 37 23 37
27 0 5 6 8 14 8 7 0 19 7 26 15 7 8 21 15 31 15 11 0 19 3 19 8 0 4 18 16 40
26 22 11 40 23 40 28 0 4 8 8 19 8 10 0 24 7 31 15 7 8 19 15 26 15 8 0 14 3
14 8 0 4 17 15 38 25 20 10 60 31 87 48 28 16 58 33 68 36 9 3 17 9 17 14 0 5
6 9 14 9 8 0 21 6 28 13 17 15 88 57 111 64 9 3 17 9 17 13 0 4 18 15 40 25
22 10 40 21 40 25 0 5 11 11 25 14 14 4 25 11 25 16 0 6 9 10 20 10 11 0 20 4
20 9 0 5 12 14 28 20 33 13 92 47 106 61 5 5 18 10 28 10 10 0 18 5 18 10 0 6
5 10 11 10 12 0 104 73 131 105 10 11 17 26 18 33 0 6 5 12 10 12 6 0 10 5 10
10 0 6 11 33 24 60 28 57 43 186 31 269 l-7 51 -292 0 c-345 0 -326 -6 -326
107 0 111 -36 103 467 103 333 0 433 -3 441 -13 6 -6 14 -92 18 -189 7 -177 7
-178 29 -174 12 2 31 9 41 14 11 5 46 22 79 37 33 15 92 42 130 60 39 18 88
40 110 50 22 9 51 21 65 27 14 6 32 14 40 19 8 5 22 12 30 15 17 7 50 21 135
59 64 28 78 34 140 59 22 10 48 21 57 26 10 6 25 10 33 10 8 0 15 5 15 10 0 6
6 10 14 10 7 0 33 10 57 23 24 13 65 32 92 42 26 10 47 22 47 26 0 5 6 9 13 9
8 0 27 6 43 14 16 7 44 20 62 27 17 8 32 17 32 20 0 7 -120 59 -137 59 -7 0
-13 4 -13 9 0 5 -10 12 -22 16 -25 7 -38 12 -113 45 -27 12 -66 29 -85 37 -19
8 -48 20 -65 28 -16 7 -52 23 -80 35 -27 12 -88 40 -135 62 -47 22 -101 47
-120 56 -19 8 -43 19 -52 23 -10 5 -24 9 -32 9 -7 0 -19 7 -26 15 -7 8 -21 15
-31 15 -11 0 -19 5 -19 10 0 6 -6 10 -13 10 -13 0 -59 19 -99 41 -10 5 -26 9
-37 9 -10 0 -24 7 -31 15 -7 8 -16 15 -21 15 -5 0 -33 11 -63 25 -30 14 -57
25 -60 25 -3 0 -6 -69 -6 -153z"/>
</g>
</svg>
